<?xml version="1.0" encoding="UTF-8" standalone="no"?>
<!-- Created with Inkscape (http://www.inkscape.org/) -->

<svg
   xmlns:dc="http://purl.org/dc/elements/1.1/"
   xmlns:cc="http://creativecommons.org/ns#"
   xmlns:rdf="http://www.w3.org/1999/02/22-rdf-syntax-ns#"
   xmlns:svg="http://www.w3.org/2000/svg"
   xmlns="http://www.w3.org/2000/svg"
   xmlns:sodipodi="http://sodipodi.sourceforge.net/DTD/sodipodi-0.dtd"
   xmlns:inkscape="http://www.inkscape.org/namespaces/inkscape"
   width="210mm"
   height="297mm"
   viewBox="0 0 744.09448819 1052.3622047"
   id="svg2"
   version="1.1"
   inkscape:version="0.91 r"
   sodipodi:docname="shader.svg">
  <sodipodi:namedview
     id="base"
     pagecolor="#ffffff"
     bordercolor="#666666"
     borderopacity="1.0"
     inkscape:pageopacity="0.0"
     inkscape:pageshadow="2"
     inkscape:zoom="0.7"
     inkscape:cx="395.70068"
     inkscape:cy="408.12182"
     inkscape:document-units="px"
     inkscape:current-layer="layer1"
     showgrid="false"
     inkscape:window-width="1596"
     inkscape:window-height="861"
     inkscape:window-x="0"
     inkscape:window-y="18"
     inkscape:window-maximized="0" />
  <defs
     id="defs4" />
  <metadata
     id="metadata7">
    <rdf:RDF>
      <cc:Work
         rdf:about="">
        <dc:format>image/svg+xml</dc:format>
        <dc:type
           rdf:resource="http://purl.org/dc/dcmitype/StillImage" />
      </cc:Work>
    </rdf:RDF>
  </metadata>
  <g
     inkscape:label="Capa 1"
     inkscape:groupmode="layer"
     id="layer1">
    <g
       transform="translate(88.571429,-2.8571424)"
       id="g8166">
      <rect
         ry="0"
         rx="0"
         y="323.79077"
         x="160"
         height="434.28571"
         width="277.14285"
         id="rect8068"
         style="opacity:1;fill:#de8787;fill-opacity:1;stroke:none;stroke-width:3;stroke-linecap:round;stroke-miterlimit:4;stroke-dasharray:12, 12;stroke-dashoffset:27;stroke-opacity:1" />
      <g
         id="g8114"
         style="fill:#1a1a1a">
        <g
           id="g8263"
           transform="translate(27.142857,0)">
          <path
             id="rect8070"
             d="m 65.714287,332.36221 137.142853,0 0,45.71429 -137.142853,0 z"
             style="opacity:1;fill:#1a1a1a;fill-opacity:0.8;stroke:none;stroke-width:3;stroke-linecap:round;stroke-miterlimit:4;stroke-dasharray:12, 12;stroke-dashoffset:27;stroke-opacity:1"
             inkscape:connector-curvature="0" />
          <path
             id="rect8072"
             d="m 65,704.50507 137.14285,0 0,45.71428 -137.14285,0 z"
             style="opacity:1;fill:#1a1a1a;fill-opacity:0.1;stroke:none;stroke-width:3;stroke-linecap:round;stroke-miterlimit:4;stroke-dasharray:12, 12;stroke-dashoffset:27;stroke-opacity:1"
             inkscape:connector-curvature="0" />
          <g
             id="g8229">
            <path
               d="m 65.089286,657.98721 c 0,0 137.142854,0 137.142854,0 0,0 0,45.71428 0,45.71428 0,0 -137.142854,0 -137.142854,0 0,0 0,-45.71428 0,-45.71428"
               style="opacity:1;fill:#1a1a1a;fill-opacity:0.1875;stroke:none;stroke-width:3;stroke-linecap:round;stroke-miterlimit:4;stroke-dasharray:12, 12;stroke-dashoffset:27;stroke-opacity:1"
               id="path8231"
               inkscape:connector-curvature="0" />
            <path
               d="m 65.178572,611.46935 c 0,0 137.142848,0 137.142848,0 0,0 0,45.71429 0,45.71429 0,0 -137.142848,0 -137.142848,0 0,0 0,-45.71429 0,-45.71429"
               style="opacity:1;fill:#1a1a1a;fill-opacity:0.275;stroke:none;stroke-width:3;stroke-linecap:round;stroke-miterlimit:4;stroke-dasharray:12, 12;stroke-dashoffset:27;stroke-opacity:1"
               id="path8233"
               inkscape:connector-curvature="0" />
            <path
               d="m 65.267858,564.9515 c 0,0 137.142852,0 137.142852,0 0,0 0,45.71428 0,45.71428 0,0 -137.142852,0 -137.142852,0 0,0 0,-45.71428 0,-45.71428"
               style="opacity:1;fill:#1a1a1a;fill-opacity:0.3625;stroke:none;stroke-width:3;stroke-linecap:round;stroke-miterlimit:4;stroke-dasharray:12, 12;stroke-dashoffset:27;stroke-opacity:1"
               id="path8235"
               inkscape:connector-curvature="0" />
            <path
               d="m 65.357144,518.43364 c 0,0 137.142856,0 137.142856,0 0,0 0,45.71428 0,45.71428 0,0 -137.142856,0 -137.142856,0 0,0 0,-45.71428 0,-45.71428"
               style="opacity:1;fill:#1a1a1a;fill-opacity:0.45;stroke:none;stroke-width:3;stroke-linecap:round;stroke-miterlimit:4;stroke-dasharray:12, 12;stroke-dashoffset:27;stroke-opacity:1"
               id="path8237"
               inkscape:connector-curvature="0" />
            <path
               d="m 65.446429,471.91578 c 0,0 137.142851,0 137.142851,0 0,0 0,45.71429 0,45.71429 0,0 -137.142851,0 -137.142851,0 0,0 0,-45.71429 0,-45.71429"
               style="opacity:1;fill:#1a1a1a;fill-opacity:0.5375;stroke:none;stroke-width:3;stroke-linecap:round;stroke-miterlimit:4;stroke-dasharray:12, 12;stroke-dashoffset:27;stroke-opacity:1"
               id="path8239"
               inkscape:connector-curvature="0" />
            <path
               d="m 65.535715,425.39792 c 0,0 137.142855,0 137.142855,0 0,0 0,45.71429 0,45.71429 0,0 -137.142855,0 -137.142855,0 0,0 0,-45.71429 0,-45.71429"
               style="opacity:1;fill:#1a1a1a;fill-opacity:0.625;stroke:none;stroke-width:3;stroke-linecap:round;stroke-miterlimit:4;stroke-dasharray:12, 12;stroke-dashoffset:27;stroke-opacity:1"
               id="path8241"
               inkscape:connector-curvature="0" />
            <path
               d="m 65.625001,378.88007 c 0,0 137.142849,0 137.142849,0 0,0 0,45.71429 0,45.71429 0,0 -137.142849,0 -137.142849,0 0,0 0,-45.71429 0,-45.71429"
               style="opacity:1;fill:#1a1a1a;fill-opacity:0.7125;stroke:none;stroke-width:3;stroke-linecap:round;stroke-miterlimit:4;stroke-dasharray:12, 12;stroke-dashoffset:27;stroke-opacity:1"
               id="path8243"
               inkscape:connector-curvature="0" />
          </g>
        </g>
        <g
           id="g8275"
           transform="translate(302.85714,0)"
           style="fill:#f4d7d7">
          <path
             inkscape:connector-curvature="0"
             style="opacity:1;fill:#f4d7d7;fill-opacity:0.8;stroke:none;stroke-width:3;stroke-linecap:round;stroke-miterlimit:4;stroke-dasharray:12, 12;stroke-dashoffset:27;stroke-opacity:1"
             d="m 65.714287,332.36221 137.142853,0 0,45.71429 -137.142853,0 z"
             id="path8277" />
          <path
             inkscape:connector-curvature="0"
             style="opacity:1;fill:#f4d7d7;fill-opacity:0.1;stroke:none;stroke-width:3;stroke-linecap:round;stroke-miterlimit:4;stroke-dasharray:12, 12;stroke-dashoffset:27;stroke-opacity:1"
             d="m 65,704.50507 137.14285,0 0,45.71428 -137.14285,0 z"
             id="path8279" />
          <g
             id="g8281"
             style="fill:#f4d7d7">
            <path
               id="path8283"
               style="opacity:1;fill:#f4d7d7;fill-opacity:0.1875;stroke:none;stroke-width:3;stroke-linecap:round;stroke-miterlimit:4;stroke-dasharray:12, 12;stroke-dashoffset:27;stroke-opacity:1"
               d="m 65.089286,657.98721 c 0,0 137.142854,0 137.142854,0 0,0 0,45.71428 0,45.71428 0,0 -137.142854,0 -137.142854,0 0,0 0,-45.71428 0,-45.71428"
               inkscape:connector-curvature="0" />
            <path
               id="path8285"
               style="opacity:1;fill:#f4d7d7;fill-opacity:0.275;stroke:none;stroke-width:3;stroke-linecap:round;stroke-miterlimit:4;stroke-dasharray:12, 12;stroke-dashoffset:27;stroke-opacity:1"
               d="m 65.178572,611.46935 c 0,0 137.142848,0 137.142848,0 0,0 0,45.71429 0,45.71429 0,0 -137.142848,0 -137.142848,0 0,0 0,-45.71429 0,-45.71429"
               inkscape:connector-curvature="0" />
            <path
               id="path8287"
               style="opacity:1;fill:#f4d7d7;fill-opacity:0.3625;stroke:none;stroke-width:3;stroke-linecap:round;stroke-miterlimit:4;stroke-dasharray:12, 12;stroke-dashoffset:27;stroke-opacity:1"
               d="m 65.267858,564.9515 c 0,0 137.142852,0 137.142852,0 0,0 0,45.71428 0,45.71428 0,0 -137.142852,0 -137.142852,0 0,0 0,-45.71428 0,-45.71428"
               inkscape:connector-curvature="0" />
            <path
               id="path8289"
               style="opacity:1;fill:#f4d7d7;fill-opacity:0.45;stroke:none;stroke-width:3;stroke-linecap:round;stroke-miterlimit:4;stroke-dasharray:12, 12;stroke-dashoffset:27;stroke-opacity:1"
               d="m 65.357144,518.43364 c 0,0 137.142856,0 137.142856,0 0,0 0,45.71428 0,45.71428 0,0 -137.142856,0 -137.142856,0 0,0 0,-45.71428 0,-45.71428"
               inkscape:connector-curvature="0" />
            <path
               id="path8291"
               style="opacity:1;fill:#f4d7d7;fill-opacity:0.5375;stroke:none;stroke-width:3;stroke-linecap:round;stroke-miterlimit:4;stroke-dasharray:12, 12;stroke-dashoffset:27;stroke-opacity:1"
               d="m 65.446429,471.91578 c 0,0 137.142851,0 137.142851,0 0,0 0,45.71429 0,45.71429 0,0 -137.142851,0 -137.142851,0 0,0 0,-45.71429 0,-45.71429"
               inkscape:connector-curvature="0" />
            <path
               id="path8293"
               style="opacity:1;fill:#f4d7d7;fill-opacity:0.625;stroke:none;stroke-width:3;stroke-linecap:round;stroke-miterlimit:4;stroke-dasharray:12, 12;stroke-dashoffset:27;stroke-opacity:1"
               d="m 65.535715,425.39792 c 0,0 137.142855,0 137.142855,0 0,0 0,45.71429 0,45.71429 0,0 -137.142855,0 -137.142855,0 0,0 0,-45.71429 0,-45.71429"
               inkscape:connector-curvature="0" />
            <path
               id="path8295"
               style="opacity:1;fill:#f4d7d7;fill-opacity:0.7125;stroke:none;stroke-width:3;stroke-linecap:round;stroke-miterlimit:4;stroke-dasharray:12, 12;stroke-dashoffset:27;stroke-opacity:1"
               d="m 65.625001,378.88007 c 0,0 137.142849,0 137.142849,0 0,0 0,45.71429 0,45.71429 0,0 -137.142849,0 -137.142849,0 0,0 0,-45.71429 0,-45.71429"
               inkscape:connector-curvature="0" />
          </g>
        </g>
      </g>
      <g
         id="g8126"
         transform="translate(327.85714,0)"
         style="fill:#f4d7d7" />
    </g>
  </g>
</svg>
